<?xml version="1.0" standalone="no"?><!DOCTYPE svg PUBLIC "-//W3C//DTD SVG 1.1//EN" "http://www.w3.org/Graphics/SVG/1.1/DTD/svg11.dtd"><svg t="1743494156629" class="icon" viewBox="0 0 1024 1024" version="1.1" xmlns="http://www.w3.org/2000/svg" p-id="1727" xmlns:xlink="http://www.w3.org/1999/xlink" width="200" height="200"><path d="M0 0m256 0l512 0q256 0 256 256l0 512q0 256-256 256l-512 0q-256 0-256-256l0-512q0-256 256-256Z" fill="#8a8a8a" fill-opacity="0" p-id="1728"></path><path d="M510.272 590.656l-289.088 288.96a54.656 54.656 0 0 1-38.208 16.384 54.656 54.656 0 0 1-38.784-93.44l289.024-288.96L144.192 224.64a54.592 54.592 0 0 1 76.992-76.992L510.272 436.48l289.6-289.472a54.656 54.656 0 1 1 77.056 76.992L587.328 513.6l289.6 289.536A54.592 54.592 0 0 1 838.656 896a54.656 54.656 0 0 1-38.784-15.808L510.272 590.656z" fill="#8a8a8a" fill-opacity=".88" p-id="1729"></path></svg>