<?xml version="1.0" standalone="no"?><!DOCTYPE svg PUBLIC "-//W3C//DTD SVG 1.1//EN" "http://www.w3.org/Graphics/SVG/1.1/DTD/svg11.dtd"><svg t="1743494122441" class="icon" viewBox="0 0 1024 1024" version="1.1" xmlns="http://www.w3.org/2000/svg" p-id="1517" xmlns:xlink="http://www.w3.org/1999/xlink" width="200" height="200"><path d="M320 514.368a52.864 52.864 0 0 0 15.808 37.888l272.32 266.88a55.296 55.296 0 0 0 73.984-2.752 52.608 52.608 0 0 0 2.816-72.512l-233.6-228.928 233.6-228.992a52.736 52.736 0 0 0 17.536-53.056 53.952 53.952 0 0 0-40.192-39.424 55.168 55.168 0 0 0-54.144 17.216l-272.32 266.88A52.864 52.864 0 0 0 320 514.368z" fill="#8a8a8a" fill-opacity=".88" p-id="1518"></path></svg>